{
	"asset":{
		"generator":"Khronos glTF Blender I/O v4.2.70",
		"version":"2.0"
	},
	"scene":0,
	"scenes":[
		{
			"name":"Scene",
			"nodes":[
				0
			]
		}
	],
	"nodes":[
		{
			"mesh":0,
			"name":"Cube",
			"translation":[
				-1014.2156982421875,
				-380.8892822265625,
				683.0628662109375
			]
		}
	],
	"meshes":[
		{
			"name":"Cube.001",
			"primitives":[
				{
					"attributes":{
						"POSITION":0,
						"NORMAL":1,
						"TEXCOORD_0":2
					},
					"indices":3
				}
			]
		}
	],
	"accessors":[
		{
			"bufferView":0,
			"componentType":5126,
			"count":1526,
			"max":[
				197.76043701171875,
				275.59661865234375,
				176.22035217285156
			],
			"min":[
				-1,
				-37.25070571899414,
				-1
			],
			"type":"VEC3"
		},
		{
			"bufferView":1,
			"componentType":5126,
			"count":1526,
			"type":"VEC3"
		},
		{
			"bufferView":2,
			"componentType":5126,
			"count":1526,
			"type":"VEC2"
		},
		{
			"bufferView":3,
			"componentType":5123,
			"count":4296,
			"type":"SCALAR"
		}
	],
	"bufferViews":[
		{
			"buffer":0,
			"byteLength":18312,
			"byteOffset":0,
			"target":34962
		},
		{
			"buffer":0,
			"byteLength":18312,
			"byteOffset":18312,
			"target":34962
		},
		{
			"buffer":0,
			"byteLength":12208,
			"byteOffset":36624,
			"target":34962
		},
		{
			"buffer":0,
			"byteLength":8592,
			"byteOffset":48832,
			"target":34963
		}
	],
	"buffers":[
		{
			"byteLength":57424,
			"uri":"CREWW_Blocks.bin"
		}
	]
}
